<?xml version="1.0" standalone="no"?>
<!DOCTYPE svg PUBLIC "-//W3C//DTD SVG 1.1//EN" "http://www.w3.org/Graphics/SVG/1.1/DTD/svg11.dtd" >
<svg xmlns="http://www.w3.org/2000/svg">
<metadata>Generated by IcoMoon</metadata>
<defs>
<font id="icons" horiz-adv-x="1024">
<font-face units-per-em="1024" ascent="960" descent="-64" />
<missing-glyph horiz-adv-x="1024" />
<glyph unicode="&#x20;" horiz-adv-x="512" d="" />
<glyph unicode="&#xe900;" glyph-name="minus" horiz-adv-x="991" d="M495.484-16.354c255.405 0 462.452 207.046 462.452 462.452s-207.046 462.451-462.452 462.451c-255.405 0-462.452-207.047-462.452-462.451s207.047-462.452 462.452-462.452zM0 446.097c0 273.647 221.836 495.483 495.484 495.483s495.484-221.836 495.484-495.483c0-273.649-221.835-495.484-495.484-495.484s-495.484 221.835-495.484 495.484zM573.423 427.467h-155.78v-36.864h155.78v36.864z" />
<glyph unicode="&#xe902;" glyph-name="plus" horiz-adv-x="991" d="M495.484-16.354c255.405 0 462.452 207.046 462.452 462.452s-207.046 462.451-462.452 462.451c-255.405 0-462.452-207.047-462.452-462.451s207.047-462.452 462.452-462.452zM0 446.097c0 273.647 221.836 495.483 495.484 495.483s495.484-221.836 495.484-495.483c0-273.649-221.835-495.484-495.484-495.484s-495.484 221.835-495.484 495.484zM514.154 438.17h110.592v35.080h-110.592v108.808h-37.459v-108.808h-110.592v-35.080h110.592v-108.214h37.459v108.214z" />
<glyph unicode="&#xe904;" glyph-name="arrow" d="M512 904l455.999-456-455.999-455.999-80 79.997 317.335 320.001h-693.335v112.001h693.335l-317.335 320 80 80z" />
<glyph unicode="&#xe905;" glyph-name="circle" horiz-adv-x="1126" d="M1067.887 448c0-282.77-239.055-512-533.943-512s-533.943 229.23-533.943 512c0 282.77 239.055 512 533.943 512s533.943-229.23 533.943-512z" />
<glyph unicode="&#xe906;" glyph-name="arrow_up" horiz-adv-x="1536" d="M180 10.001l-180 180 768 768 768-768-179.994-180-588.006 588-588-588z" />
<glyph unicode="&#xe907;" glyph-name="arrow_down" horiz-adv-x="1664" d="M1450.253 886l179.994-180.001-767.996-768-768 768 180 180.001 588-588.001 588.003 588.001z" />
<glyph unicode="&#xe908;" glyph-name="favorite" horiz-adv-x="1280" d="M627.5-49.5l-77.499 70.001c-88.334 80-152.5 139.167-192.5 177.5s-85 85.833-135 142.5c-48.333 56.666-81.667 107.5-100 152.499-18.333 46.668-27.5 94.167-27.5 142.5 0 81.667 27.5 150.834 82.5 207.501 56.667 56.667 126.666 85 209.999 85 96.667 0 176.667-37.5 240-112.5 63.334 75 143.334 112.5 240 112.5 83.334 0 152.5-28.333 207.501-85 56.667-56.667 85-125.834 85-207.501 0-65-21.667-132.499-65-202.5-43.333-69.999-90.834-130.833-142.5-182.5-50.001-51.666-132.5-129.166-247.501-232.5l-77.5-67.5z" />
<glyph unicode="&#xe909;" glyph-name="favorite_border" horiz-adv-x="1280" d="M645 97.999c80 71.667 139.167 125.834 177.5 162.501s80 80 125 129.999c45.001 50.001 75.834 94.167 92.5 132.5 18.333 38.333 27.5 75.834 27.5 112.499 0 53.334-18.333 97.5-54.999 132.5-35 35-79.167 52.5-132.5 52.5-41.667 0-80.833-11.667-117.5-35-35-23.333-59.167-53.334-72.5-90.001h-99.999c-13.334 36.667-38.333 66.668-75 90.001-35 23.333-73.334 35-115 35-53.334 0-98.333-17.5-135-52.5-34.999-35-52.499-79.167-52.499-132.5 0-36.666 8.333-74.166 25-112.499 18.333-38.333 49.999-82.5 95-132.5s86.666-93.334 125-129.999c38.333-36.667 97.5-90.834 177.5-162.501l5-5 5 5zM880 928c83.333 0 152.5-28.333 207.5-85 56.667-56.667 85.001-125.834 85.001-207.501 0-48.333-9.167-95.832-27.501-142.5-18.333-45-52.499-95.834-102.5-152.499-48.333-56.667-92.499-104.168-132.499-142.5s-104.168-97.5-192.5-177.5l-77.5-70.001-77.5 67.5c-115 103.334-198.333 180.835-249.999 232.5-50.001 51.667-96.667 112.5-140 182.5-43.334 70.001-65 137.5-65 202.5 0 81.667 27.5 150.834 82.501 207.501 56.666 56.667 126.666 85 209.999 85 96.667 0 176.667-37.5 240-112.5 63.333 75 143.333 112.5 240 112.5z" />
<glyph unicode="&#xe90a;" glyph-name="ellipse" horiz-adv-x="2304" d="M0 448c0 282.77 229.23 512 512 512h1280c282.771 0 512-229.23 512-512s-229.229-512-512-512h-1280c-282.77 0-512 229.229-512 512z" />
<glyph unicode="&#xe90b;" glyph-name="logo" d="M511.977 267.281c-16.565 0-30.118 13.553-30.118 30.118 0 115.953-94.871 210.825-210.825 210.825-16.563 0-30.116 13.551-30.116 30.116s13.553 30.118 30.116 30.118c149.837 0 271.059-121.225 271.059-271.059 0-16.565-13.553-30.118-30.116-30.118zM783.078 538.34c0-16.565-13.553-30.116-30.118-30.116-71.529 0-135.529-36.143-173.175-91.106-8.282 21.082-18.071 40.657-30.118 58.729 49.694 57.225 122.731 92.612 203.294 92.612 16.565 0 30.118-13.553 30.118-30.118zM512-64c-282.353 0-512 229.647-512 512s229.647 512 512 512c282.353 0 512-229.647 512-512s-229.647-512-512-512zM512 899.765c-249.225 0-451.765-202.54-451.765-451.765s202.54-451.765 451.765-451.765c249.225 0 451.765 202.541 451.765 451.765s-202.541 451.765-451.765 451.765z" />
<glyph unicode="&#xe90c;" glyph-name="info" d="M972.8 448c0 254.493-206.305 460.8-460.8 460.8-254.493 0-460.8-206.307-460.8-460.8 0-254.495 206.307-460.8 460.8-460.8 254.495 0 460.8 206.305 460.8 460.8zM1024 448c0-282.767-229.233-512-512-512-282.77 0-512 229.233-512 512 0 282.77 229.23 512 512 512 282.767 0 512-229.23 512-512zM569.682 243.2v330.547h-95.845v-330.547h95.845zM478.752 635.187c11.059-10.24 25.395-15.36 43.006-15.36 17.613 0 31.949 5.12 43.008 15.36 11.059 10.65 16.589 23.962 16.589 39.936 0 14.746-5.53 27.034-16.589 36.864s-25.395 14.746-43.008 14.746c-17.611 0-31.948-5.12-43.006-15.36s-16.589-22.938-16.589-38.093c0-15.155 5.53-27.853 16.589-38.093z" />
<glyph unicode="&#xe90d;" glyph-name="smile" d="M670.4 215.199c-46.4-32-99.2-48-158.4-48s-112.799 16-160.799 48c-46.403 33.603-80 76.8-100.801 129.603h523.201c-20.803-52.803-55.201-96-103.201-129.603zM384.799 520c-14.397-14.4-32-21.599-52.797-21.599-20.803 0-39.201 7.199-55.201 21.599-14.4 16-21.6 34.399-21.6 55.201 0 20.797 7.2 38.4 21.6 52.797 16 16 34.399 24.003 55.201 24.003 20.797 0 38.4-8.003 52.797-24.003 16-14.397 24.003-32 24.003-52.797 0-20.803-8.003-39.201-24.003-55.201zM744.801 520c-14.403-14.4-32-21.599-52.803-21.599-20.797 0-39.199 7.199-55.199 21.599-14.4 16-21.601 34.399-21.601 55.201 0 20.797 7.201 38.4 21.601 52.797 16 16 34.401 24.003 55.199 24.003 20.803 0 38.4-8.003 52.803-24.003 16-14.397 23.997-32 23.997-52.797 0-20.803-7.997-39.201-23.997-55.201zM221.6 157.599c81.601-80 178.4-119.997 290.4-119.997s208 39.997 288 119.997c81.6 81.603 122.399 178.401 122.399 290.401s-40.799 208-122.399 288c-80 81.6-176 122.4-288 122.4s-208.799-40.8-290.4-122.4c-80-80-120-176-120-288s40-208.799 120-290.401zM149.6 808c100.8 100.8 221.6 151.2 362.4 151.2s260.8-50.4 360-151.2c100.8-99.2 151.201-219.2 151.201-360s-50.401-261.601-151.201-362.399c-99.2-99.2-219.2-148.803-360-148.803s-261.6 49.603-362.4 148.803c-99.2 100.797-148.8 221.599-148.8 362.399s49.6 260.8 148.8 360z" />
<glyph unicode="&#xe90e;" glyph-name="city" horiz-adv-x="970" d="M861.475 259.368v108.63h-106.108v-108.63h106.108zM861.475 44.63v106.108h-106.108v-106.108h106.108zM538.107 691.368v106.105h-106.108v-106.105h106.108zM538.107 474.107v108.63h-106.108v-108.63h106.108zM538.107 259.368v108.63h-106.108v-108.63h106.108zM538.107 44.63v106.108h-106.108v-106.108h106.108zM214.737 474.107v108.63h-106.105v-108.63h106.105zM214.737 259.368v108.63h-106.105v-108.63h106.105zM214.737 44.63v106.108h-106.105v-106.108h106.105zM646.737 474.107h323.368v-538.107h-970.105v755.368h323.368v106.105l161.684 161.684 161.684-161.684v-323.367z" />
<glyph unicode="&#xe90f;" glyph-name="logotext" horiz-adv-x="2706" d="M1595.715 617.345c5.806 0 10.645-1.935 14.515-5.806 3.871-2.903 5.806-7.741 5.806-13.548s-1.935-9.677-5.806-13.548c-3.871-3.871-8.709-5.806-14.515-5.806h-95.801v-269.017c0-5.806-1.935-10.645-5.806-14.515s-8.709-5.806-14.515-5.806c-4.838 0-9.677 1.935-13.548 5.806s-5.806 8.709-5.806 14.515v269.017h-96.769c-4.838 0-9.677 1.935-13.548 5.806s-5.806 7.741-5.806 13.548c0 5.806 1.935 10.645 5.806 13.548 3.871 3.871 8.709 5.806 13.548 5.806h232.245zM1764.093 617.345c23.224 0 44.514-3.871 63.867-12.58 20.321-8.709 38.707-20.321 53.223-35.804 15.483-14.515 27.095-31.934 35.804-52.255s12.58-41.611 12.58-64.835c0-26.128-4.838-50.32-16.451-72.577-11.612-23.224-27.095-41.611-46.449-57.094 0 0 0 0-0.968-0.968-14.515-10.645-29.998-19.354-46.449-25.16-17.418-5.806-35.804-8.709-55.158-8.709-22.257 0-43.546 3.871-63.867 12.58s-37.74 20.321-53.223 35.804c-14.515 14.515-26.128 31.934-34.837 52.255-8.709 19.354-13.548 41.611-13.548 63.867 0 25.16 5.806 48.384 15.483 69.673 10.645 21.289 24.192 39.675 41.611 55.158l1.935 1.935c0 0 0.968 0 0.968 0.968 14.515 11.612 30.966 21.289 48.384 28.063 18.386 6.774 36.772 9.677 57.094 9.677zM1764.093 326.071c11.612 0 22.257 1.935 32.901 4.838 9.677 2.903 20.321 6.774 29.031 11.612l-156.765 191.602c-9.677-11.612-17.418-24.192-23.224-37.74-4.838-13.548-7.741-28.063-7.741-44.514s2.903-32.901 9.677-48.384c6.774-15.483 15.483-29.031 27.095-40.643 11.612-10.645 25.16-20.321 40.643-26.128 14.515-6.774 30.966-10.645 48.384-10.645zM1856.991 366.714c10.645 11.612 18.386 24.192 24.192 38.707s8.709 29.998 8.709 46.449c0 17.418-2.903 33.869-9.677 49.352s-15.483 28.063-27.095 39.675c-11.612 11.612-25.16 21.289-39.675 27.095-15.483 6.774-31.934 10.645-49.352 10.645-11.612 0-23.224-1.935-33.869-5.806-11.612-2.903-22.257-6.774-30.966-12.58l157.733-193.537zM2234.389 287.364c-0.968 0-2.903 0-5.806 0.968-2.903 0-4.838 0.968-8.709 1.935-2.903 0.968-6.774 2.903-10.645 5.806s-6.774 5.806-10.645 10.645l-89.995 116.122-98.704-126.767c-2.903-3.871-6.774-5.806-12.58-6.774-4.838-0.968-9.677 0.968-13.548 3.871-4.838 2.903-6.774 7.741-7.741 12.58 0 5.806 0.968 10.645 3.871 14.515l102.575 131.605-104.51 134.508c-2.903 4.838-4.838 8.709-3.871 14.515 0.968 4.838 2.903 9.677 6.774 12.58 4.838 3.871 8.709 4.838 14.515 3.871 4.838-0.968 9.677-2.903 12.58-7.741l100.639-127.735 97.736 125.799c3.871 3.871 7.741 6.774 12.58 7.741 5.806 0 10.645-0.968 14.515-4.838 3.871-2.903 6.774-7.741 6.774-12.58 0.968-4.838 0-9.677-3.871-13.548l-102.575-132.573 94.833-120.961c0.968-1.935 2.903-3.871 3.871-3.871 0.968-0.968 1.935-0.968 2.903-1.935 4.838 0 8.709-0.968 12.58-4.838s5.806-7.741 5.806-12.58c0-5.806-0.968-9.677-4.838-13.548-2.903-3.871-7.741-6.774-13.548-6.774h-0.968zM2348.576 287.364c-5.806 0-10.645 1.935-14.515 5.806s-5.806 8.709-5.806 14.515v291.274c0 4.838 1.935 9.677 5.806 13.548s8.709 5.806 14.515 5.806c5.806 0 9.677-1.935 13.548-5.806s5.806-8.709 5.806-13.548v-291.274c0-5.806-1.935-10.645-5.806-14.515s-7.741-5.806-13.548-5.806zM2686.298 288.332c-5.806 0-11.612 2.903-14.515 7.741l-186.764 245.792v-234.18c0-5.806-1.935-9.677-5.806-13.548s-8.709-5.806-13.548-5.806c-5.806 0-9.677 1.935-13.548 5.806s-5.806 7.741-5.806 13.548v290.306c0 4.838 0.968 8.709 3.871 11.612 1.935 2.903 4.838 5.806 9.677 6.774 3.871 0.968 7.741 1.935 11.612 0 3.871-0.968 6.774-2.903 9.677-6.774l186.764-245.792v234.18c0 5.806 0.968 9.677 4.838 13.548s8.709 5.806 13.548 5.806c5.806 0 10.645-1.935 13.548-5.806 3.871-3.871 5.806-7.741 5.806-13.548v-290.306c0-3.871-0.968-7.741-2.903-11.612-2.903-2.903-5.806-5.806-9.677-6.774-2.903-0.968-4.838-0.968-6.774-0.968zM511.906 267.043c-16.451 0-29.998 13.548-29.998 29.998 0 116.122-94.833 210.956-210.956 210.956-16.451 0-29.998 13.548-29.998 29.998s13.548 29.998 29.998 29.998c149.991 0 270.952-120.961 270.952-270.952 0-16.451-13.548-29.998-29.998-29.998zM782.859 537.995c0-16.451-13.548-29.998-29.998-29.998-71.609 0-135.476-35.804-173.216-90.963-7.741 21.289-17.418 40.643-29.998 59.029 49.352 57.094 122.896 91.93 203.214 91.93 16.451 0 29.998-13.548 29.998-29.998zM511.906-63.906c-282.565 0-511.906 229.342-511.906 511.906s229.342 511.906 511.906 511.906c282.565 0 511.906-229.342 511.906-511.906s-229.342-511.906-511.906-511.906zM511.906 899.91c-248.695 0-451.91-203.214-451.91-451.91 0-249.663 203.214-451.91 451.91-451.91 249.663 0 451.91 202.247 451.91 451.91 0 248.695-202.247 451.91-451.91 451.91z" />
<glyph unicode="&#xe913;" glyph-name="ellipse_border" horiz-adv-x="2048" d="M1521.72 908.8c254.49 0 460.8-206.307 460.8-460.8 0-254.495-206.31-460.8-460.8-460.8h-1009.72c-254.493 0-460.8 206.305-460.8 460.8 0 254.493 206.307 460.8 460.8 460.8h1009.72zM512 960c-282.77 0-512-229.23-512-512 0-282.767 229.23-512 512-512h1009.72c282.767 0 512 229.233 512 512 0 282.77-229.233 512-512 512h-1009.72z" />
<glyph unicode="&#xe915;" glyph-name="star" horiz-adv-x="1078" d="M538.947 138.105l-333.474-202.105 88.421 378.945-293.052 255.16 386.526 32.842 151.579 356.211 151.579-356.211 386.528-32.842-293.053-255.16 88.42-378.945-333.474 202.105z" />
<glyph unicode="&#xe916;" glyph-name="star_border" horiz-adv-x="1078" d="M538.947 236.63l202.105-121.263-53.054 229.899 179.372 156.629-237.476 20.211-90.947 217.263-90.947-217.263-237.474-20.211 179.369-156.629-53.053-229.899 202.105 121.263zM1077.054 570.105l-293.053-255.16 88.42-378.945-333.474 202.105-333.474-202.105 88.421 378.945-293.052 255.16 386.526 32.842 151.579 356.211 151.579-356.211 386.528-32.842z" />
<glyph unicode="&#xe917;" glyph-name="toxin" horiz-adv-x="3950" d="M755.931 933.083c16.216 0 29.44-5.547 39.68-16.64 11.096-10.24 16.64-23.467 16.64-39.68 0-15.36-5.544-28.586-16.64-39.68-10.24-11.093-23.464-16.64-39.68-16.64h-275.2v-767.999c0-16.216-5.546-29.864-16.64-40.96-10.24-10.24-23.466-15.36-39.68-15.36-15.36 0-28.586 5.12-39.68 15.36-11.094 11.096-16.64 24.744-16.64 40.96v767.999h-275.2c-15.36 0-28.587 5.547-39.68 16.64s-16.64 24.32-16.64 39.68c0 16.214 5.547 29.44 16.64 39.68 11.093 11.093 24.32 16.64 39.68 16.64h663.040zM1236.67 933.083c64.856 0 125.872-12.373 183.040-37.12 58.024-24.747 108.376-58.453 151.040-101.12 43.52-42.666 77.656-93.013 102.4-151.040 24.744-57.173 37.12-118.186 37.12-183.040 0-75.946-16.216-145.92-48.64-209.92s-76.368-117.759-131.84-161.279c0 0-0.848-0.856-2.56-2.56-40.96-30.72-85.76-55.040-134.4-72.96-48.64-17.064-100.696-25.6-156.16-25.6-64.856 0-125.864 12.376-183.040 37.12s-107.52 58.456-151.040 101.12c-42.664 42.664-76.376 92.584-101.12 149.759-24.744 57.174-37.12 118.614-37.12 184.32 0 71.68 14.504 137.814 43.52 198.4 29.016 61.44 68.696 113.92 119.040 157.44l5.12 5.12c0.856 0 2.136 0.854 3.84 2.56 40.96 34.134 87.040 60.587 138.24 79.36 51.2 19.627 105.384 29.44 162.56 29.44zM1236.67 101.083c32.424 0 63.152 3.84 92.16 11.52 29.872 8.536 58.024 20.056 84.48 34.56l-449.28 546.559c-27.304-31.573-48.64-67.413-64-107.52-15.36-39.253-23.040-81.066-23.040-125.44 0-49.493 9.392-96 28.16-139.52 18.776-43.52 44.376-81.92 76.8-115.199 33.28-32.424 71.68-58.024 115.2-76.8s90.024-28.16 139.52-28.16zM1501.63 217.563c29.864 32.426 52.912 69.119 69.12 110.079 17.072 41.814 25.6 86.186 25.6 133.12 0 49.494-9.384 96-28.16 139.52s-44.8 81.494-78.080 113.92c-32.424 33.28-70.4 59.307-113.92 78.080s-90.024 28.16-139.52 28.16c-34.136 0-66.984-4.693-98.56-14.080-31.576-8.533-61.016-21.333-88.32-38.4l451.84-550.399zM2219.959 401.883c-17.064 0-31.568 6.827-43.52 20.48l-328.96 422.4c-9.384 11.946-13.224 25.174-11.52 39.68 1.712 15.36 8.536 27.733 20.48 37.12 11.952 9.387 25.176 12.8 39.68 10.24 15.36-1.707 27.736-8.533 37.12-20.48l286.72-366.080 280.32 359.68c9.392 11.947 21.336 18.773 35.84 20.48 15.36 1.707 29.016-2.133 40.96-11.52 11.952-9.387 18.776-21.76 20.48-37.12 1.712-14.506-2.128-27.733-11.52-39.68l-322.56-414.72c-11.088-13.653-25.6-20.48-43.52-20.48zM2579.639-10.277c-3.408 0-8.96 0.424-16.64 1.28-6.824 0.856-14.928 2.984-24.32 6.4-9.384 4.264-19.624 9.816-30.72 16.64-10.24 7.68-20.48 17.92-30.72 30.72l-257.28 331.519-280.32-360.959c-9.384-11.944-21.76-18.776-37.12-20.48-14.504-1.704-27.728 2.136-39.68 11.52-11.944 9.384-18.768 21.336-20.48 35.84-1.704 15.36 2.136 29.016 11.52 40.96l322.56 414.719c10.24 13.654 24.32 20.48 42.24 20.48 18.776 0 33.712-6.826 44.8-20.48l299.52-383.999c4.272-5.976 8.112-9.816 11.52-11.52 3.416-1.704 5.976-2.984 7.68-3.84 14.512 0 26.456-5.12 35.84-15.36 10.24-9.384 15.792-21.336 16.64-35.84 1.712-15.36-2.56-28.584-12.8-39.68s-23.040-17.064-38.4-17.92h-3.84zM2906.28-10.277c-16.216 0-29.864 5.544-40.96 16.64s-16.64 24.744-16.64 40.96v831.999c0 15.36 5.544 28.587 16.64 39.68s24.744 16.64 40.96 16.64c15.36 0 28.584-5.547 39.68-16.64s16.64-24.32 16.64-39.68v-831.999c0-16.216-5.544-29.864-16.64-40.96s-24.32-16.64-39.68-16.64zM3872.015-7.717c-18.776 0-33.28 7.256-43.52 21.76l-533.76 701.439v-668.159c0-15.36-5.552-28.584-16.64-39.68-10.24-10.24-23.040-15.36-38.4-15.36-14.512 0-27.312 5.12-38.4 15.36-11.096 11.096-16.64 24.32-16.64 39.68v830.719c0 11.947 3.408 22.613 10.24 32 6.824 9.387 16.208 15.787 28.16 19.2 11.088 4.267 22.184 4.693 33.28 1.28 11.088-3.413 20.48-9.813 28.16-19.2l532.48-702.719v669.439c0 14.507 5.12 27.307 15.36 38.4 11.088 11.093 24.32 16.64 39.68 16.64s28.16-5.547 38.4-16.64c11.088-11.093 16.64-23.893 16.64-38.4v-830.719c0-11.944-3.416-22.616-10.24-32-6.832-9.384-15.792-16.216-26.88-20.48-8.536-1.704-14.512-2.56-17.92-2.56z" />
<glyph unicode="&#xe918;" glyph-name="ellipse_button" horiz-adv-x="2048" d="M512 908.8c-254.493 0-460.8-206.307-460.8-460.8 0-254.495 206.307-460.8 460.8-460.8h1024c254.495 0 460.8 206.305 460.8 460.8 0 254.493-206.305 460.8-460.8 460.8h-1024zM0 448c0 282.77 229.23 512 512 512h1024c282.767 0 512-229.23 512-512 0-282.767-229.233-512-512-512h-1024c-282.77 0-512 229.233-512 512zM512 755.2c-169.662 0-307.2-137.538-307.2-307.2s137.538-307.2 307.2-307.2c169.661 0 307.2 137.539 307.2 307.2s-137.539 307.2-307.2 307.2z" />
<glyph unicode="&#xe919;" glyph-name="circle_button" d="M512-12.8c254.495 0 460.8 206.305 460.8 460.8 0 254.493-206.305 460.8-460.8 460.8-254.493 0-460.8-206.307-460.8-460.8 0-254.495 206.307-460.8 460.8-460.8zM0 448c0 282.77 229.23 512 512 512 282.767 0 512-229.23 512-512 0-282.767-229.233-512-512-512-282.77 0-512 229.233-512 512zM512 755.2c-169.662 0-307.2-137.538-307.2-307.2s137.538-307.2 307.2-307.2c169.661 0 307.2 137.539 307.2 307.2s-137.539 307.2-307.2 307.2z" />
<glyph unicode="&#xe91a;" glyph-name="check_mark" d="M149.954 520.453l434.446-434.446-144.815-144.815-434.447 434.446 144.815 144.815zM874.031 665.269l144.815-144.816-579.261-579.261-144.816 144.815 579.262 579.262z" />
<glyph unicode="&#xe91b;" glyph-name="facebook" d="M1000.727 832v-768c0-29.091-10.184-53.816-30.543-74.184-20.368-20.359-45.093-30.543-74.184-30.543h-185.456v386.183h130.909l19.638 148.364h-150.547v93.817c0 23.273 4.366 40.727 13.093 52.364 11.636 13.091 31.274 19.637 58.908 19.637h78.545v130.909c-30.543 4.363-68.366 6.545-113.455 6.545-58.182 0-104.727-17.455-139.636-52.364-33.452-33.455-50.181-80.728-50.181-141.818v-109.090h-133.092v-148.364h133.092v-386.183h-429.819c-29.091 0-53.818 10.184-74.182 30.543-20.364 20.368-30.545 45.093-30.545 74.184v768c0 29.091 10.182 53.818 30.545 74.182s45.091 30.545 74.182 30.545h768c29.091 0 53.816-10.182 74.184-30.545 20.359-20.364 30.543-45.091 30.543-74.182z" />
<glyph unicode="&#xe91c;" glyph-name="twitter" horiz-adv-x="1229" d="M1101.599 697.6c1.603-6.4 2.401-16.8 2.401-31.2 0-115.2-28.001-226.397-83.999-333.6-57.6-113.603-138.399-204.001-242.401-271.201-113.597-75.197-243.999-112.799-391.2-112.799-140.8 0-269.6 37.601-386.4 112.799 17.6-1.597 37.6-2.401 60-2.401 116.799 0 221.6 36.004 314.4 108.001-56 0-105.6 16-148.8 48-41.6 33.603-70.4 75.203-86.4 124.8 16-1.597 31.2-2.396 45.6-2.396 22.4 0 44.8 2.396 67.2 7.199-57.6 12.8-105.6 42.399-144 88.801-38.4 46.397-57.6 99.197-57.6 158.397v4.8c35.2-20.8 72.8-32 112.8-33.6-33.6 24-60.8 54.4-81.6 91.2s-31.2 76.8-31.2 120c0 44.8 12 87.2 36 127.2 62.4-78.401 138.4-140.8 228-187.201 91.201-46.399 188-71.999 290.4-76.8-3.2 19.2-4.797 38.4-4.797 57.6 0 44.8 11.197 86.4 33.597 124.8 22.4 40.001 52.797 71.2 91.197 93.6s80.005 33.6 124.805 33.6c36.797 0 70.4-7.2 100.797-21.6 32-14.4 60.001-33.6 83.999-57.6 57.6 11.201 111.201 31.2 160.804 60-19.2-59.2-56.003-105.6-110.403-139.2 48 6.4 96 20 144 40.8-35.2-51.2-77.599-95.2-127.201-132z" />
<glyph unicode="&#xe91d;" glyph-name="instagram" d="M512 698.909c-45.093 0-87.273-11.636-126.545-34.909-37.818-21.818-68.364-52.364-91.636-91.636-21.818-37.818-32.727-79.271-32.727-124.364s10.909-87.273 32.727-126.548c23.273-37.814 53.818-68.361 91.636-91.634 39.273-21.816 81.452-32.726 126.545-32.726s86.547 10.91 124.365 32.726c39.27 23.273 69.818 53.821 91.634 91.634 23.273 39.275 34.909 81.455 34.909 126.548s-11.636 86.546-34.909 124.364c-21.816 39.272-52.364 69.818-91.634 91.636-37.818 23.273-79.272 34.909-124.365 34.909zM512 284.365c-45.093 0-83.637 15.998-115.637 47.998s-48 70.544-48 115.638c0 45.093 16 83.637 48 115.637s70.543 48 115.637 48c45.093 0 83.638-16 115.638-48s47.998-70.543 47.998-115.637c0-45.093-15.998-83.638-47.998-115.638s-70.544-47.998-115.638-47.998zM832.726 709.818c-1.452-16-7.997-29.818-19.633-41.454-10.184-11.636-23.273-17.455-39.275-17.455s-29.817 5.818-41.453 17.455c-11.636 11.636-17.455 25.454-17.455 41.454s5.818 29.818 17.455 41.454c11.636 11.636 25.451 17.455 41.453 17.455s29.817-5.818 41.453-17.455c11.636-11.636 17.455-25.454 17.455-41.454zM998.544 650.909c-2.909 42.181-9.453 78.545-19.638 109.090-13.089 36.364-33.452 67.637-61.086 93.818-26.186 27.636-57.456 48-93.822 61.091-30.543 10.182-66.909 16-109.089 17.455-40.727 2.909-108.367 4.364-202.91 4.364-94.545 0-162.909-1.455-205.091-4.364-40.727-1.455-76.364-7.273-106.909-17.455-36.364-13.091-68.364-33.455-96-61.091-26.182-26.182-45.818-57.454-58.909-93.818-10.182-30.545-16.727-66.909-19.636-109.090-1.455-40.727-2.182-108.364-2.182-202.909 0-94.543 0.727-162.909 2.182-205.089 2.909-40.727 9.455-76.367 19.636-106.91 13.091-36.366 32.728-68.366 58.909-96 27.636-26.182 59.636-45.093 96-56.73 30.545-11.636 66.182-18.181 106.909-19.633 42.182-2.914 110.545-4.366 205.091-4.366 94.543 0 162.183 1.452 202.91 4.366 42.179 1.452 78.545 7.27 109.089 17.455 36.366 13.089 67.635 32.726 93.822 58.908 27.634 27.634 47.998 59.634 61.086 96 10.184 30.543 16.002 66.183 17.455 106.91 2.914 42.179 4.366 110.545 4.366 205.089s-0.726 162.182-2.183 202.909zM893.817 160c-17.455-43.636-48.728-74.91-93.817-93.817-23.273-8.727-62.543-14.545-117.821-17.455-30.543-1.457-75.636-2.183-135.27-2.183h-69.818c-58.182 0-103.273 0.726-135.273 2.183-53.818 2.909-93.091 8.727-117.818 17.455-43.636 17.455-74.909 48.728-93.818 93.817-8.727 24.73-14.545 64-17.455 117.821-1.455 31.995-2.182 77.089-2.182 135.27v69.818c0 58.182 0.727 103.273 2.182 135.273 2.909 55.273 8.727 94.545 17.455 117.818 17.455 45.091 48.727 76.363 93.818 93.818 24.727 8.727 64 14.545 117.818 17.455 32 1.455 77.091 2.182 135.273 2.182h69.818c58.182 0 103.275-0.727 135.27-2.182 55.277-2.909 94.548-8.727 117.821-17.455 45.089-17.455 76.362-48.727 93.817-93.818 8.727-23.273 14.545-62.545 17.455-117.818 1.457-30.545 2.183-75.636 2.183-135.273v-69.818c0-58.182-0.726-103.275-2.183-135.27-2.909-53.821-8.727-93.091-17.455-117.821z" />
</font>
</defs>
</svg>
