<?xml version="1.0" encoding="UTF-8"?>
<!DOCTYPE svg PUBLIC "-//W3C//DTD SVG 1.1//EN" "http://www.w3.org/Graphics/SVG/1.1/DTD/svg11.dtd">
<!-- Creator: CorelDRAW X8 -->
<svg xmlns="http://www.w3.org/2000/svg" xml:space="preserve" width="27.9636mm" height="10.5833mm" version="1.1" style="shape-rendering:geometricPrecision; text-rendering:geometricPrecision; image-rendering:optimizeQuality; fill-rule:evenodd; clip-rule:evenodd"
viewBox="0 0 2796 1058"
 xmlns:xlink="http://www.w3.org/1999/xlink">
 <defs>
  <style type="text/css">
   <![CDATA[
    .fil0 {fill:#1F2041}
    .fil3 {fill:url(#id0)}
    .fil2 {fill:url(#id1)}
    .fil1 {fill:url(#id2)}
   ]]>
  </style>
  <linearGradient id="id0" gradientUnits="userSpaceOnUse" x1="529.17" y1="0.01" x2="529.17" y2="1058.32">
   <stop offset="0" style="stop-opacity:1; stop-color:#8BA4F9"/>
   <stop offset="1" style="stop-opacity:1; stop-color:#8BA4F9"/>
   <stop offset="82.949" style="stop-opacity:1; stop-color:#BC9CFF"/>
   <stop offset="1" style="stop-opacity:1; stop-color:#BC9CFF"/>
  </linearGradient>
  <linearGradient id="id1" gradientUnits="userSpaceOnUse" x1="687.92" y1="396.88" x2="687.92" y2="555.62">
   <stop offset="0" style="stop-opacity:1; stop-color:#66D2EA"/>
   <stop offset="1" style="stop-opacity:1; stop-color:#66D2EA"/>
   <stop offset="71.0902" style="stop-opacity:1; stop-color:#6FCF97"/>
   <stop offset="1" style="stop-opacity:1; stop-color:#6FCF97"/>
  </linearGradient>
  <linearGradient id="id2" gradientUnits="userSpaceOnUse" x1="396.88" y1="396.88" x2="396.88" y2="714.36">
   <stop offset="0" style="stop-opacity:1; stop-color:#8BA4F9"/>
   <stop offset="1" style="stop-opacity:1; stop-color:#8BA4F9"/>
   <stop offset="59.2314" style="stop-opacity:1; stop-color:#BC9CFF"/>
   <stop offset="1" style="stop-opacity:1; stop-color:#BC9CFF"/>
  </linearGradient>
 </defs>
 <g id="Слой_x0020_1">
  <metadata id="CorelCorpID_0Corel-Layer"/>
  <g id="_872623424">
   <path class="fil0" d="M1649 354c6,0 11,2 15,6 4,3 6,8 6,14 0,6 -2,10 -6,14 -4,4 -9,6 -15,6l-99 0 0 278c0,6 -2,11 -6,15 -4,4 -9,6 -15,6 -5,0 -10,-2 -14,-6 -4,-4 -6,-9 -6,-15l0 -278 -100 0c-5,0 -10,-2 -14,-6 -4,-4 -6,-8 -6,-14 0,-6 2,-11 6,-14 4,-4 9,-6 14,-6l240 0z"/>
   <path class="fil0" d="M1823 354c24,0 46,4 66,13 21,9 40,21 55,37 16,15 28,33 37,54 9,21 13,43 13,67 0,27 -5,52 -17,75 -12,24 -28,43 -48,59 0,0 0,0 -1,1 -15,11 -31,20 -48,26 -18,6 -37,9 -57,9 -23,0 -45,-4 -66,-13 -21,-9 -39,-21 -55,-37 -15,-15 -27,-33 -36,-54 -9,-20 -14,-43 -14,-66 0,-26 6,-50 16,-72 11,-22 25,-41 43,-57l2 -2c0,0 1,0 1,-1 15,-12 32,-22 50,-29 19,-7 38,-10 59,-10zm0 301c12,0 23,-2 34,-5 10,-3 21,-7 30,-12l-162 -198c-10,12 -18,25 -24,39 -5,14 -8,29 -8,46 0,17 3,34 10,50 7,16 16,30 28,42 12,11 26,21 42,27 15,7 32,11 50,11zm96 -42c11,-12 19,-25 25,-40 6,-15 9,-31 9,-48 0,-18 -3,-35 -10,-51 -7,-16 -16,-29 -28,-41 -12,-12 -26,-22 -41,-28 -16,-7 -33,-11 -51,-11 -12,0 -24,2 -35,6 -12,3 -23,7 -32,13l163 200z"/>
   <path class="fil0" d="M2309 695c-1,0 -3,0 -6,-1 -3,0 -5,-1 -9,-2 -3,-1 -7,-3 -11,-6 -4,-3 -7,-6 -11,-11l-93 -120 -102 131c-3,4 -7,6 -13,7 -5,1 -10,-1 -14,-4 -5,-3 -7,-8 -8,-13 0,-6 1,-11 4,-15l106 -136 -108 -139c-3,-5 -5,-9 -4,-15 1,-5 3,-10 7,-13 5,-4 9,-5 15,-4 5,1 10,3 13,8l104 132 101 -130c4,-4 8,-7 13,-8 6,0 11,1 15,5 4,3 7,8 7,13 1,5 0,10 -4,14l-106 137 98 125c1,2 3,4 4,4 1,1 2,1 3,2 5,0 9,1 13,5 4,4 6,8 6,13 0,6 -1,10 -5,14 -3,4 -8,7 -14,7l-1 0z"/>
   <path class="fil0" d="M2427 695c-6,0 -11,-2 -15,-6 -4,-4 -6,-9 -6,-15l0 -301c0,-5 2,-10 6,-14 4,-4 9,-6 15,-6 6,0 10,2 14,6 4,4 6,9 6,14l0 301c0,6 -2,11 -6,15 -4,4 -8,6 -14,6z"/>
   <path class="fil0" d="M2776 694c-6,0 -12,-3 -15,-8l-193 -254 0 242c0,6 -2,10 -6,14 -4,4 -9,6 -14,6 -6,0 -10,-2 -14,-6 -4,-4 -6,-8 -6,-14l0 -300c0,-5 1,-9 4,-12 2,-3 5,-6 10,-7 4,-1 8,-2 12,0 4,1 7,3 10,7l193 254 0 -242c0,-6 1,-10 5,-14 4,-4 9,-6 14,-6 6,0 11,2 14,6 4,4 6,8 6,14l0 300c0,4 -1,8 -3,12 -3,3 -6,6 -10,7 -3,1 -5,1 -7,1z"/>
   <path class="fil1" d="M529 716c-17,0 -31,-14 -31,-31 0,-120 -98,-218 -218,-218 -17,0 -31,-14 -31,-31 0,-17 14,-31 31,-31 155,0 280,125 280,280 0,17 -14,31 -31,31z"/>
   <path class="fil2" d="M809 436c0,17 -14,31 -31,31 -74,0 -140,37 -179,94 -8,-22 -18,-42 -31,-61 51,-59 127,-95 210,-95 17,0 31,14 31,31z"/>
   <path class="fil3" d="M529 1058c-292,0 -529,-237 -529,-529 0,-292 237,-529 529,-529 292,0 529,237 529,529 0,292 -237,529 -529,529zm0 -996c-257,0 -467,210 -467,467 0,258 210,467 467,467 258,0 467,-209 467,-467 0,-257 -209,-467 -467,-467z"/>
  </g>
 </g>
</svg>
